<svg xmlns="http://www.w3.org/2000/svg" viewBox="0 0 40 40" width="160" height="160"><path fill="#ffeea3" d="M3.036,37.5c-0.41,0-0.796-0.16-1.086-0.45c-0.291-0.29-0.45-0.676-0.45-1.085 c0-0.41,0.159-0.796,0.45-1.086l7.49-7.613l2.972-9.353c0.191-0.669,0.8-1.127,1.482-1.127c0.142,0,0.283,0.02,0.42,0.059 c0.438,0.125,1.176,0.472,1.766,0.939c0.52,0.412,0.798,0.825,0.726,1.078l-4.488,9.552c-0.101,0.327-0.235,0.557-0.417,0.736 l-7.782,7.902C3.831,37.34,3.445,37.5,3.036,37.5z"/><path fill="#ba9b48" d="M13.895,17.286L13.895,17.286c0.095,0,0.19,0.013,0.283,0.04c0.865,0.247,1.964,1.034,2.124,1.417 l-4.437,9.459l-0.034,0.072l-0.022,0.077c-0.049,0.17-0.139,0.325-0.269,0.454l-7.772,7.892C3.572,36.892,3.312,37,3.036,37 c-0.276,0-0.536-0.108-0.732-0.303C1.9,36.293,1.9,35.636,2.309,35.226l7.404-7.525l0.168-0.171l0.072-0.228l2.944-9.265 C13.024,17.595,13.434,17.286,13.895,17.286 M13.895,16.286c-0.884,0-1.703,0.582-1.959,1.477L9,27l-7.404,7.525 c-0.795,0.795-0.795,2.083,0,2.879C1.994,37.801,2.515,38,3.036,38s1.042-0.199,1.439-0.596l7.777-7.897 c0.245-0.244,0.423-0.547,0.518-0.88L17.286,19c0.309-1.081-1.752-2.327-2.834-2.636C14.266,16.311,14.079,16.286,13.895,16.286 L13.895,16.286z"/><path fill="#a59dd1" d="M9.684,26.5l2.729-8.587c0.191-0.669,0.8-1.127,1.482-1.127c0.142,0,0.283,0.02,0.42,0.059 c0.438,0.125,1.176,0.472,1.766,0.939c0.52,0.412,0.798,0.825,0.726,1.078l-3.62,7.638H9.684z"/><path fill="#8b75a1" d="M13.895,17.286c0.095,0,0.19,0.013,0.283,0.04c0.865,0.247,1.962,1.033,2.124,1.416L12.869,26 h-2.502l2.53-7.962C13.024,17.595,13.434,17.286,13.895,17.286 M13.895,16.285c-0.884,0-1.703,0.582-1.959,1.477L9,27h4.502 l3.784-8c0.309-1.081-1.752-2.327-2.834-2.636C14.266,16.311,14.079,16.285,13.895,16.285L13.895,16.285z"/><path fill="#ffeea3" d="M11,30.5c-0.827,0-1.5-0.673-1.5-1.5s0.673-1.5,1.5-1.5h8.268l-5.533-8.694 c-0.444-0.698-0.237-1.628,0.46-2.071c0.241-0.153,0.519-0.235,0.803-0.235c0.517,0,0.991,0.261,1.27,0.696l6.999,10.999 c0.294,0.462,0.313,1.048,0.049,1.528C23.052,30.202,22.548,30.5,22,30.5H11z"/><path fill="#ba9b48" d="M14.997,16.999c0.345,0,0.661,0.174,0.846,0.463l7,10.999c0.196,0.308,0.209,0.699,0.032,1.02 C22.701,29.802,22.365,30,22,30H11c-0.551,0-1-0.449-1-1s0.449-1,1-1h7.356h1.822L19.2,26.463l-5.044-7.925 c-0.296-0.466-0.159-1.086,0.306-1.382C14.624,17.054,14.809,16.999,14.997,16.999 M14.997,15.999 c-0.367,0-0.738,0.101-1.071,0.313c-0.932,0.593-1.206,1.829-0.613,2.762L18.356,27H11c-1.104,0-2,0.896-2,2s0.896,2,2,2h11 c0.729,0,1.402-0.397,1.753-1.037c0.352-0.641,0.326-1.421-0.065-2.037l-7-11C16.305,16.327,15.658,15.999,14.997,15.999 L14.997,15.999z"/><path fill="#ffeea3" d="M29,20.5c-0.827,0-1.5-0.673-1.5-1.5v-4.682L24.025,6.5H17c-0.827,0-1.5-0.673-1.5-1.5 s0.673-1.5,1.5-1.5h8c0.592,0,1.13,0.35,1.37,0.891l4,9c0.086,0.193,0.13,0.397,0.13,0.609v5C30.5,19.827,29.827,20.5,29,20.5z"/><path fill="#ba9b48" d="M25,4c0.395,0,0.753,0.233,0.913,0.594l4.001,9.002C29.971,13.723,30,13.859,30,14v5 c0,0.551-0.449,1-1,1s-1-0.449-1-1v-4.575v-0.212l-0.086-0.194l-3.3-7.425L24.35,6H23.7H17c-0.551,0-1-0.449-1-1s0.449-1,1-1H25 M25,3h-8c-1.104,0-2,0.896-2,2s0.896,2,2,2h6.7l3.3,7.425V19c0,1.104,0.896,2,2,2s2-0.896,2-2v-5c0-0.28-0.059-0.557-0.173-0.813 l-4-9C26.507,3.466,25.79,3,25,3L25,3z"/><path fill="#ffeea3" d="M35.5 5.5A3 3 0 1 0 35.5 11.5A3 3 0 1 0 35.5 5.5Z"/><path fill="#ba9b48" d="M35.5,6C36.878,6,38,7.122,38,8.5S36.878,11,35.5,11S33,9.879,33,8.5S34.121,6,35.5,6 M35.5,5 C33.567,5,32,6.567,32,8.5c0,1.933,1.567,3.5,3.5,3.5c1.933,0,3.5-1.567,3.5-3.5C39,6.567,37.433,5,35.5,5L35.5,5z"/><g><path fill="#99c99e" d="M14.752,14.911l10.562-3.823l-0.393-2.265l2.883-1.178l2.576,5.757 c0.077,0.182,0.12,0.391,0.12,0.598v4.5h-3v-1.198l-9.453,3.22L14.752,14.911z"/><path fill="#5e9c76" d="M27.545,8.292l2.372,5.301C29.972,13.721,30,13.858,30,14v4h-2v-1.397l-1.322,0.45l-8.406,2.863 l-2.784-4.74l9.602-3.476l0.788-0.285l-0.143-0.826l-0.252-1.456L27.545,8.292 M28.063,7l-3.703,1.513l0.389,2.248l-10.391,3.761 c-0.116,0.04-0.218,0.1-0.327,0.15l3.791,6.454L27,18v1h4v-5c0-0.276-0.056-0.549-0.164-0.802L28.063,7L28.063,7z"/></g><g><path fill="#b08159" d="M29,24.5c-1.965,0-4.5-1.455-4.5-3s2.535-3,4.5-3s4.5,1.455,4.5,3S30.965,24.5,29,24.5z"/><path fill="#704e34" d="M29,19c1.832,0,4,1.355,4,2.5S30.832,24,29,24s-4-1.355-4-2.5S27.168,19,29,19 M29,18 c-2.148,0-5,1.566-5,3.5c0,1.934,2.852,3.5,5,3.5c2.147,0,5-1.566,5-3.5C34,19.566,31.147,18,29,18L29,18z"/></g><g><path fill="#ffeea3" d="M28.789,25.5c-0.711,0-1.289-0.578-1.289-1.289v-0.422c0-0.711,0.578-1.289,1.289-1.289h0.422 c0.711,0,1.289,0.578,1.289,1.289v0.422c0,0.711-0.578,1.289-1.289,1.289H28.789z"/><path fill="#ba9b48" d="M29.211,23C29.646,23,30,23.354,30,23.789v0.422C30,24.646,29.646,25,29.211,25h-0.422 C28.354,25,28,24.646,28,24.211v-0.422C28,23.354,28.354,23,28.789,23H29.211 M29.211,22h-0.422C27.805,22,27,22.805,27,23.789 v0.422C27,25.195,27.805,26,28.789,26h0.422C30.195,26,31,25.195,31,24.211v-0.422C31,22.805,30.195,22,29.211,22L29.211,22z"/></g><g><path fill="#dcd5f2" d="M18.256,26.5l-5.444-7.528C12.553,18.627,12.5,18.254,12.5,18c0-2.589,1.99-3.213,2.763-3.358 L22.229,26.5H18.256z"/><path fill="#8b75a1" d="M15.019,15.214L21.355,26h-2.844l-5.304-7.335C13.036,18.437,13,18.178,13,18 C13,16.101,14.243,15.441,15.019,15.214 M15.526,14.102c0,0-3.526,0.252-3.526,3.898c0,0.44,0.122,0.886,0.407,1.265L18,27h5.103 L15.526,14.102L15.526,14.102z"/></g></svg>